<?xml version="1.0" encoding="UTF-8" standalone="no"?>
<svg
   xml:space="preserve"
   width="884.8"
   height="956.3"
   fill-rule="evenodd"
   clip-rule="evenodd"
   image-rendering="optimizeQuality"
   shape-rendering="geometricPrecision"
   text-rendering="geometricPrecision"
   viewBox="0 0 13064 14121"
   version="1.1"
   id="svg4"
   sodipodi:docname="LogoPPMIcolor.svg"
   inkscape:version="1.4.2 (f4327f4, 2025-05-13)"
   inkscape:export-filename="LogoPPMIcolor.png"
   inkscape:export-xdpi="96"
   inkscape:export-ydpi="96"
   xmlns:inkscape="http://www.inkscape.org/namespaces/inkscape"
   xmlns:sodipodi="http://sodipodi.sourceforge.net/DTD/sodipodi-0.dtd"
   xmlns="http://www.w3.org/2000/svg"
   xmlns:svg="http://www.w3.org/2000/svg"><defs
   id="defs4" /><sodipodi:namedview
   id="namedview4"
   pagecolor="#ffffff"
   bordercolor="#000000"
   borderopacity="0.25"
   inkscape:showpageshadow="2"
   inkscape:pageopacity="0.0"
   inkscape:pagecheckerboard="0"
   inkscape:deskcolor="#d1d1d1"
   inkscape:zoom="0.44808817"
   inkscape:cx="168.49363"
   inkscape:cy="555.69421"
   inkscape:window-width="1368"
   inkscape:window-height="850"
   inkscape:window-x="-6"
   inkscape:window-y="-6"
   inkscape:window-maximized="1"
   inkscape:current-layer="svg4"
   inkscape:export-bgcolor="#ffffff00" />
  <style
   id="style1">
    path {
      fill: #ffffff;
    }
  </style>
  <path
   id="path1"
   style="fill:#027635;fill-opacity:1"
   d="m 8636.6318,11149.883 1,2 c 0,-1 -2,-1 -1,-2 z m 756,-7560.0001 h -227 v 355 c 0,107 73,180 170,203 0,41 -7,72 -9,109 -11,197 -54,477 -62,661 -2,39 -9,71 -9,113 h -218 c 6,27 32,72 44,98 51,105 81,210 104,331 3,18 5,40 10,61 60,232 265,481 401,681 l 194,311 c 62,116 65,164 64,300 0,30 5,38 5,66 2,116 0,225 19,340 12,71 28,161 91,202 39.0002,26 64.0002,20 122.0002,25 85,7 69,136 75,213 l 29,547 c 1,48 1,94 5,142 l 14,274 c 13,112 32,112 100,188 16,18 42,70 52,95 59,167 48,320 -8,486 a 1343,1343 0 0 1 -140,289 c -8,15 -17,29 -27,44 l -291.0002,366.0001 c -40,51 -225,250 -276,301 l -217,217 c -26,26 -50,45 -76,71 a 7264,7264 0 0 1 -470,395 c -38,29 -52,28 -102,44 -24,7 -90,30 -114,32 l 544,-434 c 12,-9 18,-18 29,-28 l 62,-56 c 23,-17 38,-35 58,-55 22,-21 40,-35 62,-57 51,-50 221,-217 257,-262 l 189,-212 26,-31 c 64,-71.0001 128.0002,-146.0001 186.0002,-221.0001 104,-136 279,-415 279,-647 0,-101 -23,-233 -77,-297 -62,-73 -114,-99 -113,-223 l -16,-319 c -7,-46 -4,-109 -7,-158 -5,-84 -18,-235 -19,-317 -1,-47 -2,-116 -8,-157 -3,-23 -4,-149 -8,-157 -8,-13 -83,-1 -140.0002,-31 -150,-77 -157,-353 -156,-515 0,-33 -5,-45 -5,-75 0,-60 7,-195 -9,-241 -56,-153 -152,-293 -246,-426 -147,-207 -332,-440 -402,-684 -15,-51 -21,-130 -45,-210 -24,-83 -58,-169 -94,-241 -77,-152 -173,-295 -284,-420 -9,-10 -13,-12 -20,-23 -34,-44 -186,-199 -229,-235 l -44,-40 c -11,-10 -13,-10 -24,-19 l -226,-190 -48,-37 a 6237,6237 0 0 0 -490,-351 l -401,-264 c -351,-234 -708,-456 -1030,-729 -38,-32 -108,-101 -136,-119 -14,22 -39,44 -60,62 l -111,97 c -15,13 -30,22 -45,36 -45,40 -95,75 -143,111 l -290,207 c -35,24 -68,44 -101,69 -32,24 -67,43 -100,65 l -302,199 c -159,105 -354,223 -504,332 l -338,243 c -80,60 -234,179 -303,245 l -149,140 c -14,14 -32,25 -44,41 -26,32 -52,54 -81,84 -10,11 -10,13 -19,24 l -21,21 -149,187 a 1575,1575 0 0 0 -286,630 c -5,26 -7,47 -13,73 -5,24 -13,45 -20,64 -60,159 -147,289 -239,427 l -137,194 c -58,83 -114,165 -164,252 -31,54 -62,112 -84,171 -18,47 -20,255 -20,316 0,173 -3,496 -200,546 -58,15 -96,-13 -98,30 -1,18 1,23 -2,40 l -49,953 c 0,33 -6,46 -5,80 2,202 -109,182 -161,340 a 681,681 0 0 0 10,411 c 38,113 95,224 160,322 71,107 133,174 209,268 36,45 72,88.0001 111,130.0001 39,41 73,87 114,127 l 116,125 c 54,65 228,227 300,296 l 94,85 c 41,42 116,102 163,140 l 67,55 66,53 c 43,35 312,241 353,251 -202,-301 -424,-891 -512,-1203 -62,-222.0001 -119,-453.0001 -160,-700.0001 -99,-600 -130,-1329 147,-1886 l 33,-61 c 59,-102 138,-216 228,-288 10,-8 14,-14 24,-23 207,-175 467,-270 764,-270 h 95 c 0,-33 -49,-253 -56,-295 -26,-154 -49,-313 -48,-476 0,-27 -5,-60 -3,-77 4,-28 3,-59 3,-88 a 1389,1389 0 0 1 45,-304 819,819 0 0 1 220,-389 c 18,-18 31,-26 48,-43 29,-29 60,-56 92,-82 a 3144,3144 0 0 1 148,-112 c 88,-60 177,-121 269,-176 178,-107 522,-317 655,-435 a 1052,1052 0 0 0 276,-387 c 86,-191 134,-395 191,-597 6,-20 16,-54 16,-74 h 10 c 1,67 131,488 159,555 l 88,200 26,45 c 25,46 55,89 87,130 123,150 239,219 395,323 270,181 571,329 817,544 128,111 221,200 293,355 151,325 98,845 27,1195 -10,50 -35,142 -35,187 145,0 293,9 422,46 138,39 266,94 378,179 125,95 228,216 306,352 11,19 21,40 34,60 7,13 8,19 14,33 l 45,97 c 35,88 66,185 88,285 36,167 55,324 69,494 l 5,184 c 0,90 -10,178 -10,265 1,83 -15,172 -23,255 -29,305 -101,636 -183,923 -20,73.0001 -40,143.0001 -63,211.0001 l -70,208 c -67,201 -154,391 -248,579 l -98,181 c -28,52 -18,39 -82,55 -283,71 -568,106 -868,106 l -449,-10 c -161,-8 -452,-42 -606,-64 -58,-9 -113,-18 -169,-25 -58,-8 -283,-52 -330,-52 15,20 89,55 114,70 l 59,35 307,165 60,30 161,76 33,14 c 336,161 793,295 1165,338 125,14 270,23 407,23 733,0 1345,-299 1754.0002,-637 53,-44 111,-81 167,-121 69,-50 144,-99 219,-140 l 384,-197 c 189,-90 486,-188 695,-250 18,-5 39,-10 55,-21 -91,-21 -277,-42 -378,-47 -115,-6 -234,-5 -350,-5 -16,0 -18,4 -33,5 0,-108 -35,-227 -72,-301 -27,-54 -57,-98 -95,-142 -35,-40.0001 -23,-40.0001 -26,-114.0001 -3,-53 -14,-117 -15,-171 l -39,-527 c -4,-21 -7,-63 -8,-82 -1,-33 -2,-56 -5,-90 l -94,-1228 c 32,-17 56,-40 81,-65 76,-76 136,-186 136,-309 v -633 c -357,0 -288,21 -299,-60 -2,-18 -4,-55 -7,-73 l -6,-75 c -5,-110 -18,-220 -23,-330 l -19,-218 c -3,-38 -2,-74 -8,-115 -3,-21 -4,-52 -6,-70 l -5,-75 c -1,-52 -9,-96 -9,-151 95,-22 193,-132 193,-250 v -355 c 0,-23 -73,-14 -113,-14 h -128 c -6,-25 -8,-78 -9,-108 -1,-33 -9,-77 -10,-109 -1,-37 -5,-76 -8,-109 -10,-87 -33,-513 -44,-557 47,-23 68,-10 122,-77 32,-38 48,-86 48,-155 v -326 h -212 c 0,-84 -12,-163 -19,-246 -1,-14 1,-27 -1,-41 l -32,-393 c -6,-79 -12,-250 -29,-321 -29,-115 -93,-212 -154.0002,-309 l -30,-46 c -36,-54 -47,-115 -52,-184 -9,-161 -35,-315 -73,-470 -5,-20 -15,-47 -16,-64 -18,13 -33,99 -37,119 l -45,267 c -27,206 8,224 -123,420 a 800,800 0 0 0 -129,268 c -17,67 -24,204 -31,282 -7,92 -22,191 -27,284 -3,48 -9,97 -14,142 -8,74 -24,224 -24,292 z" />
  <path
   style="fill:#027635;fill-opacity:1"
   d="m 6070.6318,8168.8829 c 87,0 142,-16 209,-56 26,-16 46,-30 69,-49 108,-86 195,-228 256,-349 51,-103 84,-194 119,-302 l 63,-238 21,-98 c 6,-34 11,-71 19,-104 l -68,74 c -42,54 -173,158 -235,195 a 895,895 0 0 1 -305,120 830,830 0 0 1 -617,-147 l -40,-30 -40,-31 c -68,-56 -90,-88 -142,-142 -16,-16 -18,-26 -37,-39 l 38,199 c 51,213 91,346 181,542 40,85 126,221 194,288 82,83 183,167 315,167 z"
   id="path22" /><path
   style="fill:#aec925;fill-opacity:1"
   d="m 4841.6318,7492.8829 c 0,115 -27,272 -75,369 a 743,743 0 0 1 -249,309 1062,1062 0 0 1 -592,191 c 15,21 176,90 199,99 146,60 288,114 447,148 213,46 509,79 692,-70 286,-232 55,-696 -91,-914 l -85,-123 c -14,-20 -29,-37 -45,-58 l -143,-170 c -17,-19 -34,-31 -51,-52 -13,-17 -33,-45 -54,-50 25,51 47,249 47,321 z"
   id="path21" /><path
   style="fill:#393186;fill-opacity:1"
   d="m 7114.6318,9429.8829 c 0,214 180,389 338,508 69,52 146,100.0001 223,141.0001 l 329,153 c 27,11 161,61 183,63 l -102,-130 c -33,-44 -62,-94 -87,-144 a 809,809 0 0 1 9,-798.0001 c 62,-108 167,-218 266,-292 l 130,-87 c 8,-7 7,-3 10,-14 -88,0 -241,10 -334,20 -181,18 -321,49 -489,106 -205,69 -476,227 -476,474 z"
   id="path20" /><path
   style="fill:#009edf;fill-opacity:1"
   d="m 6736.6318,8210.8829 c 0,78 6,153 43,217 85,150 251,218 420,218 149,0 206,-1 357,-35 191,-44 382,-112 555,-197 25,-12 85,-33 99,-52 -122,0 -280,-36 -368,-70 -94,-38 -172,-76 -249,-139 a 781,781 0 0 1 -221,-280 968,968 0 0 1 -65,-551 l 29,-150 c -24,16 -114,117 -147,155 l -92,111 c -57,69 -167,226 -208,307 -69,136 -153,291 -153,466 z"
   id="path19" /><path
   id="path2"
   style="fill:#ffffff;fill-opacity:1;stroke:#000000;stroke-width:5.43399;stroke-dasharray:none;stroke-opacity:1"
   d="m 5347.6318,9221.8829 c 0,129 8,226 65,337 a 709,709 0 0 0 1051,273 706,706 0 0 0 88,-1067 l -96,-79 c -69,-51 -155,-88 -240,-109 a 712,712 0 0 0 -796,372 c -38,71 -72,194 -72,273 z" />
  <path
   style="fill:#393186;fill-opacity:1"
   d="m 8116.6318,9552.8829 c 0,274 325,346 455,177 21,-27 22,-23 39,-60 a 259,259 0 1 0 -495,-117 z"
   id="path56" /><path
   style="fill:#aec925;fill-opacity:1"
   d="m 4048.6318,7686.8829 c 0,80 4,110 50,177 114,165 403,130 459,-93 a 263,263 0 0 0 -93,-269 c -195,-139 -416,22 -416,185 z"
   id="path55" /><path
   style="fill:#009edf;fill-opacity:1"
   d="m 7568.6318,7705.8829 a 260,260 0 0 0 440,190 261,261 0 0 0 -64,-420 261,261 0 0 0 -376,230 z"
   id="path54" /><g
   id="g106"
   style="fill:#ef7f1b;fill-opacity:1"
   transform="translate(263.63181,1515.8829)"><path
     style="fill:#ef7f1b;fill-opacity:1"
     d="m 3974,8099 c 0,115 -21,218 -60,317 -34,85 -75,155 -126,230 l -24,32 -79,101 c 27,-2 64,-21 90,-29 a 3199,3199 0 0 0 374,-160 c 98,-51 275,-161 357,-237 12,-11 19,-21 31,-31 54,-45 29,-30 61,-62 62,-60 155,-204 155,-322 0,-92 -7,-140 -59,-219 -119,-182 -401,-293 -602,-334 l -411,-61 -227,-10 c 10,15 66,44 95,66 100,74 178,136 254,237 47,63 89,130 118,208 29,80 53,166 53,273 z"
     id="path23" /><path
     style="fill:#ef7f1b;fill-opacity:1"
     d="m 3237,8037 a 260,260 0 1 0 250,-250 261,261 0 0 0 -250,250 z"
     id="path53" /></g><path
   style="fill:#027635;fill-opacity:1"
   d="m 5843.6318,6887.8829 v 24 c 0,256 374,356 495,98 120,-258 -216,-494 -416,-293 -44,45 -79,100 -79,171 z"
   id="path3" />
  
<path
   id="path106"
   style="fill:#800000;fill-opacity:1"
   d="m 5347.6318,9221.8829 c 0,220.7533 1381.029,207.8344 1404.8668,96.6952 16.9085,-205.0148 -56.4422,-407.208 -200.8668,-553.6952 l -96,-79 c -69,-51 -155,-88 -240,-109 -319.331,-74.0191 -647.9339,79.5491 -796,372 -38,71 -72,194 -72,273 z"
   sodipodi:nodetypes="ssccccs" /></svg>
